<svg xmlns="http://www.w3.org/2000/svg" viewBox="0 0 920 860" font-family="'Segoe UI', 'Helvetica Neue', Arial, sans-serif">
  <rect x="0" y="0" width="920" height="860" fill="#0d1117" rx="12"/>
  <text x="30" y="42" font-size="22" font-weight="700" fill="#f0f6fc">Sprint 2 Board — PortföyAI</text>
  <text x="30" y="66" font-size="13" fill="#8b949e">6 – 19 Temmuz 2026 · Sprint hedefi: 37 puan (planlanan) + backlog dışı ek kapsam</text>

  <!-- Column: Tamamlandı -->
  <g>
    <rect x="24" y="90" width="284" height="720" rx="10" fill="#0f2b1a" stroke="#238636" stroke-width="1.5"/>
    <rect x="24" y="90" width="284" height="40" rx="10" fill="#238636"/>
    <rect x="24" y="118" width="284" height="12" fill="#238636"/>
    <text x="166" y="115" font-size="15" font-weight="700" fill="#ffffff" text-anchor="middle">Tamamlandı</text>

    <g font-size="12" fill="#e6edf3">
      <rect x="40" y="146" width="252" height="50" rx="8" fill="#161b22" stroke="#30363d"/>
      <text x="52" y="164" font-weight="600">Pricing Agent (ChromaDB k-NN)</text>
      <text x="52" y="182" fill="#8b949e" font-size="11">Emsal aralığı + satılık/kiralık ayrımı</text>
      <circle cx="272" cy="166" r="11" fill="#238636"/>
      <text x="272" y="170" font-size="11" fill="#fff" text-anchor="middle">8</text>

      <rect x="40" y="204" width="252" height="50" rx="8" fill="#161b22" stroke="#30363d"/>
      <text x="52" y="222" font-weight="600">WhatsApp Intake Webhook</text>
      <text x="52" y="240" fill="#8b949e" font-size="11">HMAC imza + idempotency</text>
      <circle cx="272" cy="224" r="11" fill="#238636"/>
      <text x="272" y="228" font-size="11" fill="#fff" text-anchor="middle">8</text>

      <rect x="40" y="262" width="252" height="50" rx="8" fill="#161b22" stroke="#30363d"/>
      <text x="52" y="280" font-weight="600">Ofis Paneli + Tasarım Sistemi</text>
      <text x="52" y="298" fill="#8b949e" font-size="11">Bento dashboard, 4 sekmeli Adaylar</text>
      <circle cx="272" cy="282" r="11" fill="#238636"/>
      <text x="272" y="286" font-size="11" fill="#fff" text-anchor="middle">8</text>

      <rect x="40" y="320" width="252" height="50" rx="8" fill="#161b22" stroke="#30363d"/>
      <text x="52" y="338" font-weight="600">WhatsApp Oto-Yanıt Botu</text>
      <text x="52" y="356" fill="#8b949e" font-size="11">MENÜ/İLANLAR/DURUM/DANIŞMAN</text>
      <circle cx="272" cy="340" r="11" fill="#238636"/>
      <text x="272" y="344" font-size="11" fill="#fff" text-anchor="middle">+</text>

      <rect x="40" y="378" width="252" height="50" rx="8" fill="#161b22" stroke="#30363d"/>
      <text x="52" y="396" font-weight="600">Voice-to-Listing + Sesli Not→CRM</text>
      <text x="52" y="414" fill="#8b949e" font-size="11">Gemini native audio, onaylı taslak</text>
      <circle cx="272" cy="398" r="11" fill="#238636"/>
      <text x="272" y="402" font-size="11" fill="#fff" text-anchor="middle">+</text>

      <rect x="40" y="436" width="252" height="50" rx="8" fill="#161b22" stroke="#30363d"/>
      <text x="52" y="454" font-weight="600">Toplu İlan Aktarımı</text>
      <text x="52" y="472" fill="#8b949e" font-size="11">Kaynak yapıştır + kapak fotoğrafı</text>
      <circle cx="272" cy="456" r="11" fill="#238636"/>
      <text x="272" y="460" font-size="11" fill="#fff" text-anchor="middle">+</text>

      <rect x="40" y="494" width="252" height="50" rx="8" fill="#161b22" stroke="#30363d"/>
      <text x="52" y="512" font-weight="600">Yapılandırılmış Konum</text>
      <text x="52" y="530" fill="#8b949e" font-size="11">81 il · 973 ilçe · 32b mahalle autocomplete</text>
      <circle cx="272" cy="514" r="11" fill="#238636"/>
      <text x="272" y="518" font-size="11" fill="#fff" text-anchor="middle">+</text>

      <rect x="40" y="552" width="252" height="50" rx="8" fill="#161b22" stroke="#30363d"/>
      <text x="52" y="570" font-weight="600">Lead Pipeline + Takip Mesajları</text>
      <text x="52" y="588" fill="#8b949e" font-size="11">Huni + notlar + 3 aşamalı zincir (kod)</text>
      <circle cx="272" cy="572" r="11" fill="#238636"/>
      <text x="272" y="576" font-size="11" fill="#fff" text-anchor="middle">+</text>

      <rect x="40" y="610" width="252" height="50" rx="8" fill="#161b22" stroke="#30363d"/>
      <text x="52" y="628" font-weight="600">Reports + Komisyon Takibi</text>
      <text x="52" y="646" fill="#8b949e" font-size="11">Gelir, dönüşüm oranı, bölge dağılımı</text>
      <circle cx="272" cy="630" r="11" fill="#238636"/>
      <text x="272" y="634" font-size="11" fill="#fff" text-anchor="middle">+</text>

      <rect x="40" y="668" width="252" height="50" rx="8" fill="#161b22" stroke="#30363d"/>
      <text x="52" y="686" font-weight="600">Production Deploy</text>
      <text x="52" y="704" fill="#8b949e" font-size="11">Railway + Vercel · 308 test yeşil</text>
      <circle cx="272" cy="688" r="11" fill="#238636"/>
      <text x="272" y="692" font-size="11" fill="#fff" text-anchor="middle">+</text>

      <rect x="40" y="726" width="252" height="50" rx="8" fill="#161b22" stroke="#30363d" stroke-dasharray="4 3"/>
      <text x="52" y="744" font-weight="600" fill="#8b949e">Scoring + Ulaşım Raporu</text>
      <text x="52" y="762" fill="#6e7681" font-size="11">Bitirildi → ürün kararıyla kaldırıldı</text>
      <circle cx="272" cy="746" r="11" fill="#6e7681"/>
      <text x="272" y="750" font-size="11" fill="#fff" text-anchor="middle">5</text>
    </g>
  </g>

  <!-- Column: Devam Ediyor -->
  <g>
    <rect x="318" y="90" width="284" height="720" rx="10" fill="#2b230f" stroke="#9e6a03" stroke-width="1.5"/>
    <rect x="318" y="90" width="284" height="40" rx="10" fill="#9e6a03"/>
    <rect x="318" y="118" width="284" height="12" fill="#9e6a03"/>
    <text x="460" y="115" font-size="15" font-weight="700" fill="#ffffff" text-anchor="middle">Devam Ediyor</text>

    <g font-size="12" fill="#e6edf3">
      <rect x="334" y="146" width="252" height="66" rx="8" fill="#161b22" stroke="#30363d"/>
      <text x="346" y="166" font-weight="600">iyzico Sandbox Aktivasyonu</text>
      <text x="346" y="184" fill="#8b949e" font-size="11">Kod tamam ve test edildi —</text>
      <text x="346" y="200" fill="#8b949e" font-size="11">aktivasyon maili yanıtı bekleniyor</text>
      <circle cx="566" cy="166" r="11" fill="#9e6a03"/>
      <text x="566" y="170" font-size="11" fill="#fff" text-anchor="middle">8</text>

      <rect x="334" y="224" width="252" height="66" rx="8" fill="#161b22" stroke="#30363d"/>
      <text x="346" y="244" font-weight="600">Meta Kalıcı Erişim Token'ı</text>
      <text x="346" y="262" fill="#8b949e" font-size="11">Webhook doğrulaması geçti; System</text>
      <text x="346" y="278" fill="#8b949e" font-size="11">User token + APP_SECRET kaldı</text>
      <circle cx="566" cy="244" r="11" fill="#9e6a03"/>
      <text x="566" y="248" font-size="11" fill="#fff" text-anchor="middle">-</text>

      <rect x="334" y="302" width="252" height="66" rx="8" fill="#161b22" stroke="#30363d"/>
      <text x="346" y="322" font-weight="600">Gemini API Kredisi</text>
      <text x="346" y="340" fill="#8b949e" font-size="11">AI Studio bakiyesi tükendi — sesli</text>
      <text x="346" y="356" fill="#8b949e" font-size="11">özellikler prod'da 429 dönüyor</text>
      <circle cx="566" cy="322" r="11" fill="#9e6a03"/>
      <text x="566" y="326" font-size="11" fill="#fff" text-anchor="middle">-</text>
    </g>
  </g>

  <!-- Column: Yapilacak -->
  <g>
    <rect x="612" y="90" width="284" height="720" rx="10" fill="#21262d" stroke="#6e7681" stroke-width="1.5"/>
    <rect x="612" y="90" width="284" height="40" rx="10" fill="#484f58"/>
    <rect x="612" y="118" width="284" height="12" fill="#484f58"/>
    <text x="754" y="110" font-size="15" font-weight="700" fill="#ffffff" text-anchor="middle">Yapılacak</text>
    <text x="754" y="126" font-size="10.5" fill="#d0d7de" text-anchor="middle">(Sprint 3'e devretti)</text>

    <g font-size="12" fill="#e6edf3">
      <rect x="628" y="146" width="252" height="66" rx="8" fill="#161b22" stroke="#30363d"/>
      <text x="640" y="166" font-weight="600">Cron Kurulumu</text>
      <text x="640" y="184" fill="#8b949e" font-size="11">Otomatik takip zinciri + randevu</text>
      <text x="640" y="200" fill="#8b949e" font-size="11">hatırlatması saatlik tetikleme</text>
      <circle cx="860" cy="166" r="11" fill="#6e7681"/>
      <text x="860" y="170" font-size="11" fill="#fff" text-anchor="middle">3</text>

      <rect x="628" y="224" width="252" height="66" rx="8" fill="#161b22" stroke="#30363d"/>
      <text x="640" y="244" font-weight="600">Uçtan Uca WhatsApp Testi</text>
      <text x="640" y="262" fill="#8b949e" font-size="11">Gerçek numarayla QR testi:</text>
      <text x="640" y="278" fill="#8b949e" font-size="11">intake → bot → eşleşme → takip</text>
      <circle cx="860" cy="244" r="11" fill="#6e7681"/>
      <text x="860" y="248" font-size="11" fill="#fff" text-anchor="middle">5</text>

      <rect x="628" y="302" width="252" height="66" rx="8" fill="#161b22" stroke="#30363d"/>
      <text x="640" y="322" font-weight="600">Sentry + ChromaDB Volume</text>
      <text x="640" y="340" fill="#8b949e" font-size="11">Hata izleme + kalıcı emsal endeksi</text>
      <text x="640" y="356" fill="#8b949e" font-size="11">(production sertleştirme)</text>
      <circle cx="860" cy="322" r="11" fill="#6e7681"/>
      <text x="860" y="326" font-size="11" fill="#fff" text-anchor="middle">5</text>
    </g>
  </g>

  <text x="30" y="846" font-size="11" fill="#6e7681">Tek kişilik takım (Product Owner / Scrum Master / Developer: Ömer Faruk Toycu) · GitHub Projects backlog'undan üretilmiştir</text>
</svg>
