<svg xmlns="http://www.w3.org/2000/svg" viewBox="0 0 920 620" font-family="'Segoe UI', 'Helvetica Neue', Arial, sans-serif">
  <rect x="0" y="0" width="920" height="620" fill="#0d1117" rx="12"/>
  <text x="30" y="42" font-size="22" font-weight="700" fill="#f0f6fc">Sprint 1 Board — PortföyAI</text>
  <text x="30" y="66" font-size="13" fill="#8b949e">19 Haziran – 5 Temmuz 2026 · Sprint hedefi: 31 puan</text>

  <!-- Column: Tamamlandı -->
  <g>
    <rect x="24" y="90" width="284" height="500" rx="10" fill="#0f2b1a" stroke="#238636" stroke-width="1.5"/>
    <rect x="24" y="90" width="284" height="40" rx="10" fill="#238636"/>
    <rect x="24" y="118" width="284" height="12" fill="#238636"/>
    <text x="166" y="115" font-size="15" font-weight="700" fill="#ffffff" text-anchor="middle">Tamamlandı</text>

    <g font-size="12.5" fill="#e6edf3">
      <rect x="40" y="146" width="252" height="56" rx="8" fill="#161b22" stroke="#30363d"/>
      <text x="54" y="166" font-weight="600">Ofis Kaydı + JWT Auth</text>
      <text x="54" y="184" fill="#8b949e">FastAPI + python-jose</text>
      <circle cx="270" cy="166" r="11" fill="#238636"/>
      <text x="270" y="170" font-size="11" fill="#fff" text-anchor="middle">8</text>

      <rect x="40" y="212" width="252" height="56" rx="8" fill="#161b22" stroke="#30363d"/>
      <text x="54" y="232" font-weight="600">Multi-tenant RLS</text>
      <text x="54" y="250" fill="#8b949e">office_id bazlı izolasyon</text>
      <circle cx="270" cy="232" r="11" fill="#238636"/>
      <text x="270" y="236" font-size="11" fill="#fff" text-anchor="middle">5</text>

      <rect x="40" y="278" width="252" height="56" rx="8" fill="#161b22" stroke="#30363d"/>
      <text x="54" y="298" font-weight="600">Portföy CRUD</text>
      <text x="54" y="316" fill="#8b949e">Ekleme + listeleme</text>
      <circle cx="270" cy="298" r="11" fill="#238636"/>
      <text x="270" y="302" font-size="11" fill="#fff" text-anchor="middle">5</text>

      <rect x="40" y="344" width="252" height="56" rx="8" fill="#161b22" stroke="#30363d"/>
      <text x="54" y="364" font-weight="600">Matching Agent MVP</text>
      <text x="54" y="382" fill="#8b949e">Bütçe + oda + bölge filtresi</text>
      <circle cx="270" cy="364" r="11" fill="#238636"/>
      <text x="270" y="368" font-size="11" fill="#fff" text-anchor="middle">8</text>

      <rect x="40" y="410" width="252" height="56" rx="8" fill="#161b22" stroke="#30363d"/>
      <text x="54" y="430" font-weight="600">GitHub Actions CI/CD</text>
      <text x="54" y="448" fill="#8b949e">pytest + ruff, Postgres servisli</text>
      <circle cx="270" cy="430" r="11" fill="#238636"/>
      <text x="270" y="434" font-size="11" fill="#fff" text-anchor="middle">3</text>
    </g>
  </g>

  <!-- Column: Devam Ediyor -->
  <g>
    <rect x="318" y="90" width="284" height="500" rx="10" fill="#2b230f" stroke="#9e6a03" stroke-width="1.5"/>
    <rect x="318" y="90" width="284" height="40" rx="10" fill="#9e6a03"/>
    <rect x="318" y="118" width="284" height="12" fill="#9e6a03"/>
    <text x="460" y="115" font-size="15" font-weight="700" fill="#ffffff" text-anchor="middle">Devam Ediyor</text>

    <g font-size="12.5" fill="#e6edf3">
      <rect x="334" y="146" width="252" height="70" rx="8" fill="#161b22" stroke="#30363d"/>
      <text x="348" y="166" font-weight="600">Railway'e Canlı Deploy</text>
      <text x="348" y="184" fill="#8b949e">CI'da build/test var,</text>
      <text x="348" y="200" fill="#8b949e">canlı deploy adımı eksik</text>
      <circle cx="564" cy="166" r="11" fill="#9e6a03"/>
      <text x="564" y="170" font-size="11" fill="#fff" text-anchor="middle">2</text>
    </g>
  </g>

  <!-- Column: Yapilacak -->
  <g>
    <rect x="612" y="90" width="284" height="500" rx="10" fill="#21262d" stroke="#6e7681" stroke-width="1.5"/>
    <rect x="612" y="90" width="284" height="40" rx="10" fill="#484f58"/>
    <rect x="612" y="118" width="284" height="12" fill="#484f58"/>
    <text x="754" y="110" font-size="15" font-weight="700" fill="#ffffff" text-anchor="middle">Yapılacak</text>
    <text x="754" y="126" font-size="10.5" fill="#d0d7de" text-anchor="middle">(Sprint 2'ye devretti)</text>

    <g font-size="12.5" fill="#e6edf3">
      <rect x="628" y="146" width="252" height="70" rx="8" fill="#161b22" stroke="#30363d"/>
      <text x="642" y="166" font-weight="600">iyzico Sandbox Aktivasyonu</text>
      <text x="642" y="184" fill="#8b949e">Manuel talep — henüz</text>
      <text x="642" y="200" fill="#8b949e">gönderilmedi</text>
      <circle cx="858" cy="166" r="11" fill="#6e7681"/>
      <text x="858" y="170" font-size="11" fill="#fff" text-anchor="middle">3</text>

      <rect x="628" y="228" width="252" height="70" rx="8" fill="#161b22" stroke="#30363d"/>
      <text x="642" y="248" font-weight="600">WhatsApp Business</text>
      <text x="642" y="264" fill="#8b949e">Doğrulama başvurusu —</text>
      <text x="642" y="280" fill="#8b949e">henüz başlatılmadı</text>
      <circle cx="858" cy="248" r="11" fill="#6e7681"/>
      <text x="858" y="252" font-size="11" fill="#fff" text-anchor="middle">-</text>
    </g>
  </g>

  <text x="30" y="608" font-size="11" fill="#6e7681">Tek kişilik takım (Product Owner / Scrum Master / Developer: Ömer Faruk Toycu) · GitHub Projects backlog'undan üretilmiştir</text>
</svg>
